<?xml version="1.0" encoding="UTF-8" standalone="no"?>
<!DOCTYPE svg PUBLIC "-//W3C//DTD SVG 1.1//EN" "http://www.w3.org/Graphics/SVG/1.1/DTD/svg11.dtd">
<svg width="100%" height="100%" viewBox="0 0 160 55" version="1.1" xmlns="http://www.w3.org/2000/svg" xmlns:xlink="http://www.w3.org/1999/xlink" xml:space="preserve" style="fill-rule:evenodd;clip-rule:evenodd;stroke-miterlimit:1.41421;">
    <path d="M4.75,5.55L4.75,50.62L36.45,50.62L36.45,19.19L23.84,19.19L23.84,5.53L4.75,5.55L4.75,5.55Z" style="fill:none;stroke-width:1px;stroke:black;"/>
    <g>
        <path d="M45.53,26.21L45.53,32.04L56.68,32.04L56.68,37.08L45.53,37.08L45.53,46.37L39.2,46.37L39.2,21.17L57.64,21.17L57.64,26.21L45.53,26.21L45.53,26.21Z" style="fill:black;fill-rule:nonzero;stroke-width:1px;stroke-linejoin:round;stroke:black;"/>
        <path d="M79.05,36.65C79.05,42.63 74.86,46.58 68.61,46.58C62.32,46.58 58.13,42.62 58.13,36.65C58.13,30.68 62.32,26.75 68.61,26.75C74.86,26.75 79.05,30.67 79.05,36.65ZM64.31,36.72C64.31,39.74 66.05,41.76 68.61,41.76C71.13,41.76 72.87,39.74 72.87,36.72C72.87,33.73 71.13,31.68 68.61,31.68C66.05,31.68 64.31,33.73 64.31,36.72Z" style="fill:black;fill-rule:nonzero;stroke-width:1px;stroke-linejoin:round;stroke:black;"/>
        <path d="M87.61,30.24C88.92,27.97 91.09,26.71 93.83,26.68L93.83,32.3C90.28,31.98 87.93,33.67 87.61,36.4L87.61,46.37L81.46,46.37L81.46,26.97L87.61,26.97L87.61,30.24Z" style="fill:black;fill-rule:nonzero;stroke-width:1px;stroke-linejoin:round;stroke:black;"/>
        <path d="M128.21,34.13L128.21,46.37L122.1,46.37L122.1,35.85C122.1,33.55 120.82,32.14 118.8,32.14C116.49,32.21 115.07,34.12 115.07,36.75L115.07,46.36L108.92,46.36L108.92,35.85C108.92,33.55 107.68,32.14 105.65,32.14C103.31,32.21 101.85,34.12 101.85,36.75L101.85,46.36L95.74,46.36L95.74,26.96L101.85,26.96L101.85,30.16C103.16,27.86 105.37,26.7 108.17,26.67C111.3,26.67 113.6,28.33 114.56,31.06C115.8,28.18 118.15,26.7 121.31,26.67C125.51,26.68 128.21,29.59 128.21,34.13L128.21,34.13Z" style="fill:black;fill-rule:nonzero;stroke-width:1px;stroke-linejoin:round;stroke:black;"/>
        <path d="M146.42,28.87L144.32,32.9C142.01,31.64 139.88,30.96 138.28,30.96C137.18,30.96 136.4,31.39 136.4,32.29C136.4,34.95 146.49,33.66 146.45,40.42C146.45,44.42 143,46.61 138.39,46.61C135.19,46.61 132.1,45.67 129.79,43.87L131.74,39.91C133.91,41.46 136.39,42.32 138.52,42.32C139.73,42.32 140.62,41.89 140.62,40.99C140.62,38.15 130.71,39.62 130.74,32.82C130.74,28.82 134.08,26.66 138.52,26.66C141.31,26.68 144.08,27.47 146.42,28.87L146.42,28.87Z" style="fill:black;fill-rule:nonzero;stroke-width:1px;stroke-linejoin:round;stroke:black;"/>
        <g transform="matrix(0.584931,0,0,0.584931,81.2456,15.6247)">
            <g transform="matrix(1.94424,0,0,1.92411,-107.741,-6.9288)">
                <path d="M117.188,7.498C118.891,7.498 120.273,8.9 120.273,10.627C120.273,12.354 118.891,13.757 117.188,13.757C115.486,13.757 114.104,12.354 114.104,10.627C114.104,8.9 115.486,7.498 117.188,7.498ZM117.188,7.967C118.635,7.967 119.81,9.159 119.81,10.627C119.81,12.095 118.635,13.287 117.188,13.287C115.741,13.287 114.566,12.095 114.566,10.627C114.566,9.159 115.741,7.967 117.188,7.967Z" style="fill:black;"/>
            </g>
            <g transform="matrix(0.676036,0,0,0.676036,54.8838,8.15897)">
                <path d="M93.186,12.157L93.186,3.567L96.836,3.567C97.754,3.567 98.421,3.644 98.837,3.799C99.253,3.953 99.586,4.227 99.836,4.622C100.086,5.016 100.211,5.468 100.211,5.975C100.211,6.62 100.022,7.152 99.643,7.572C99.264,7.992 98.698,8.257 97.944,8.366C98.319,8.585 98.628,8.825 98.872,9.087C99.117,9.348 99.446,9.813 99.86,10.481L100.909,12.157L98.834,12.157L97.581,10.288C97.135,9.62 96.831,9.199 96.666,9.025C96.502,8.851 96.329,8.732 96.145,8.668C95.961,8.603 95.67,8.571 95.272,8.571L94.92,8.571L94.92,12.157L93.186,12.157ZM94.92,7.2L96.204,7.2C97.036,7.2 97.555,7.165 97.762,7.095C97.969,7.024 98.131,6.903 98.248,6.731C98.366,6.559 98.424,6.345 98.424,6.087C98.424,5.798 98.347,5.564 98.193,5.387C98.039,5.209 97.821,5.097 97.539,5.05C97.399,5.03 96.977,5.02 96.274,5.02L94.92,5.02L94.92,7.2Z" style="fill:black;fill-rule:nonzero;"/>
            </g>
        </g>
    </g>
    <path d="M31.46,35.59L18,35.59C18.6,37.89 20.24,39.19 22.51,39.19C24.18,39.19 25.81,38.51 27.09,37.21L30.32,40.41C28.37,42.57 25.49,43.83 21.97,43.83C15.72,43.83 11.81,39.87 11.81,33.97C11.81,27.96 15.86,24 21.79,24C28.55,24 31.89,28.5 31.46,35.59L31.46,35.59ZM25.57,32.24C25.57,29.86 24.08,28.32 21.88,28.32C19.75,28.32 18.29,29.9 17.9,32.24L25.57,32.24Z" style="fill:black;fill-rule:nonzero;stroke-width:1px;stroke-linejoin:round;stroke:black;"/>
    <path d="M23.91,5.36L36.55,19.02" style="fill:none;stroke-width:1px;stroke:black;"/>
</svg>
